<svg version="1.1" xmlns="http://www.w3.org/2000/svg" xmlns:xlink="http://www.w3.org/1999/xlink" width="136.000000pt" height="154.000000pt" viewBox="0,0,226.0625,256"><g fill="#d97706" fill-rule="nonzero" stroke="none" stroke-width="1" stroke-linecap="butt" stroke-linejoin="miter" stroke-miterlimit="10" stroke-dasharray="" stroke-dashoffset="0" font-family="none" font-weight="none" font-size="none" text-anchor="none" style="mix-blend-mode: normal"><g transform="translate(-3.30856,1.62956) scale(1.66234,1.66234)"><g transform="translate(0,154) scale(0.1,-0.1)"><path d="M732,1470c170,-14 283,-108 313,-260l6,-35l-19,30c-35,56 -110,113 -180,137c-55,18 -89,22 -187,23c-192,0 -298,-30 -354,-101c-28,-36 -27,-68 8,-139c16,-33 32,-77 36,-97c6,-31 11,-38 31,-38c37,0 33,-40 -3,-41c-22,-1 -23,-2 -8,-6c21,-5 35,-21 35,-38c0,-5 -4,-3 -10,5c-5,8 -13,11 -17,6c-4,-4 1,-15 12,-23c19,-15 19,-15 -7,-11c-15,3 -25,1 -22,-3c3,-5 13,-9 24,-9c20,0 35,-27 17,-33c-7,-2 -6,-5 4,-9c12,-5 14,11 15,91c0,91 2,101 33,154c18,31 40,58 49,58c59,5 168,3 159,-3c-7,-4 -38,-13 -71,-19c-80,-16 -51,-31 63,-32c89,-1 146,12 193,44l26,19l11,-33c6,-18 29,-54 51,-81c22,-26 40,-52 40,-57c0,-4 17,-1 37,7c27,12 42,13 59,6c20,-10 23,-7 39,45c45,143 -23,324 -149,398c-57,33 -157,55 -246,53l-75,-1zM785,1298c58,-15 126,-52 159,-87c17,-17 25,-31 20,-31c-6,0 -21,12 -35,26c-63,67 -185,100 -343,91c-170,-10 -256,-56 -217,-118c14,-23 14,-32 0,-24c-20,13 -29,54 -17,79c30,68 276,104 433,64z"></path><path d="M608,1463c7,-3 16,-2 19,1c4,3 -2,6 -13,5c-11,0 -14,-3 -6,-6z"></path><path d="M514,1434c-18,-14 -18,-14 6,-3c31,14 36,19 24,19c-6,0 -19,-7 -30,-16z"></path><path d="M434,1378l-29,-33l33,29c30,28 37,36 29,36c-2,0 -16,-15 -33,-32z"></path><path d="M531,1016c11,-9 69,-15 64,-6c-3,6 -20,10 -37,10c-17,0 -29,-2 -27,-4z"></path><path d="M780,1010c0,-5 14,-7 33,-3c45,8 47,13 4,13c-20,0 -37,-4 -37,-10z"></path><path d="M543,953c-24,-9 -13,-18 22,-19c37,-1 46,10 19,20c-18,7 -23,7 -41,-1z"></path><path d="M790,950c-21,-13 -10,-19 23,-13c21,4 25,8 15,14c-16,11 -20,11 -38,-1z"></path><path d="M1023,934c-3,-9 0,-20 8,-25c12,-8 11,-11 -4,-20c-9,-6 -15,-14 -12,-20c8,-12 52,-12 60,1c4,7 -3,8 -22,4c-25,-7 -27,-6 -14,9c11,14 11,20 1,32c-10,12 -10,16 1,19c40,13 42,14 16,15c-17,1 -30,-5 -34,-15z"></path><path d="M1121,894c0,-11 3,-14 6,-6c3,7 2,16 -1,19c-3,4 -6,-2 -5,-13z"></path><path d="M330,866c0,-2 8,-10 18,-17c15,-13 16,-12 3,4c-13,16 -21,21 -21,13z"></path><path d="M976,815c-9,-26 -7,-32 5,-12c6,10 9,21 6,23c-2,3 -7,-2 -11,-11z"></path><path d="M620,798c0,-19 42,-48 68,-48c27,0 62,26 62,46c0,5 -29,9 -65,9c-36,0 -65,-3 -65,-7zM720,770c0,-5 -14,-10 -31,-10c-17,0 -28,4 -24,10c3,6 17,10 31,10c13,0 24,-4 24,-10z"></path><path d="M513,706c9,-7 17,-16 17,-19c0,-4 -51,-8 -112,-9l-113,-3l-3,-30c-2,-16 -8,-35 -13,-42c-7,-8 -5,-10 9,-6c11,2 23,-1 28,-8c5,-9 2,-11 -9,-6c-9,3 -19,2 -22,-3c-4,-6 4,-10 17,-11c23,-1 22,-1 -2,-8l-25,-7l25,-8l25,-8l-25,-8l-25,-8l25,-1c23,-2 24,-3 7,-15c-15,-12 -17,-26 -15,-82l3,-69l48,-1l47,-1l-45,4l-45,4v63c0,48 4,65 15,70c21,8 21,104 0,112c-9,4 -15,19 -15,35v29h158h157l-3,-155l-3,-156l-54,2c-30,1 -58,-1 -62,-4c-3,-4 5,-7 19,-7c26,0 26,-1 30,-93c3,-69 1,-96 -10,-109c-7,-9 -12,-27 -10,-40c3,-21 9,-23 67,-26c37,-2 69,2 75,8c6,6 11,48 11,97c1,79 -12,83 -14,6c-1,-33 -1,-33 -51,-33c-33,0 -50,4 -50,13c0,8 14,11 45,9c28,-3 45,0 45,7c0,7 -20,11 -50,11h-50v75v75h69c39,0 73,-4 76,-10c9,-15 87,-12 108,4c9,7 17,21 17,30c0,10 8,16 25,16c22,0 25,4 25,35v35l-41,-20c-31,-16 -39,-25 -34,-40c3,-11 1,-28 -5,-39c-8,-16 -18,-19 -53,-17c-38,3 -42,6 -39,27c3,19 1,22 -9,12c-7,-7 -17,-13 -22,-13c-16,0 28,61 90,122l62,61l38,-12c21,-7 44,-15 52,-18c8,-3 11,-1 7,5c-4,6 -25,17 -46,23c-45,14 -44,10 -29,81c12,56 24,71 49,62c12,-4 12,-2 3,7c-9,9 -21,8 -53,-5c-62,-24 -250,-22 -310,4c-25,11 -37,14 -27,6zM647,537c-2,-23 -3,-1 -3,48c0,50 1,68 3,42c2,-26 2,-67 0,-90zM750,630c0,-36 -2,-40 -25,-40c-22,0 -25,4 -25,40c0,36 3,40 25,40c23,0 25,-4 25,-40zM745,490c-16,-16 -31,-28 -33,-25c-3,3 -15,-3 -26,-12c-21,-18 -21,-18 -2,4c10,13 22,21 26,18c4,-2 18,7 30,20c13,14 26,25 29,25c2,0 -8,-13 -24,-30zM647,438c-3,-7 -5,-2 -5,12c0,14 2,19 5,13c2,-7 2,-19 0,-25z"></path><path d="M946,657c3,-10 9,-15 12,-12c3,3 0,11 -7,18c-10,9 -11,8 -5,-6z"></path><path d="M861,586c2,-2 21,-11 42,-19c41,-18 52,-7 12,11c-24,11 -63,17 -54,8z"></path><path d="M271,564c0,-11 3,-14 6,-6c3,7 2,16 -1,19c-3,4 -6,-2 -5,-13z"></path><path d="M464,491c-2,-2 -4,-24 -4,-48v-43h66h65l-3,48l-3,47h-58c-32,0 -60,-2 -63,-4zM580,445v-35h-55h-55v35v35h55h55z"></path><path d="M881,344c0,-11 3,-14 6,-6c3,7 2,16 -1,19c-3,4 -6,-2 -5,-13z"></path><path d="M699,298c-11,-20 -10,-21 3,-11c11,10 17,10 27,0c11,-10 11,-8 2,11c-6,12 -14,22 -16,22c-2,0 -10,-10 -16,-22z"></path><path d="M746,260c4,-8 19,-30 33,-49c17,-22 26,-47 26,-70c0,-48 25,-51 88,-12c49,32 57,53 34,85c-12,16 -16,15 -61,-10c-49,-27 -49,-27 -65,-7c-51,65 -61,77 -55,63z"></path><path d="M843,229c-36,-23 -40,-29 -20,-29c14,0 76,49 62,49c-5,1 -25,-9 -42,-20z"></path></g></g></g></svg>