<svg version="1.1" xmlns="http://www.w3.org/2000/svg" xmlns:xlink="http://www.w3.org/1999/xlink" width="335.000000pt" height="260.000000pt" viewBox="0,0,256,198.67188"><g fill="#d97706" fill-rule="nonzero" stroke="none" stroke-width="1" stroke-linecap="butt" stroke-linejoin="miter" stroke-miterlimit="10" stroke-dasharray="" stroke-dashoffset="0" font-family="none" font-weight="none" font-size="none" text-anchor="none" style="mix-blend-mode: normal"><g transform="translate(0.5211,-7.62369) scale(0.76418,0.76418)"><g transform="translate(0,260) scale(0.1,-0.1)"><path d="M1280,2269c-172,-5 -205,-9 -285,-33c-224,-67 -364,-172 -497,-370c-136,-203 -280,-567 -363,-912c-19,-82 -39,-161 -44,-176l-9,-28h74c78,0 126,-16 138,-45c3,-9 6,-54 6,-100c0,-73 -3,-87 -21,-104c-23,-21 -107,-36 -159,-29c-16,3 -30,1 -30,-4c0,-4 4,-8 8,-8c5,0 18,-17 29,-37c57,-101 129,-141 266,-150c90,-6 93,-7 137,-46c71,-63 162,-101 241,-101c54,0 78,6 131,32c36,18 83,50 104,72l39,40h669h668l57,-52c77,-71 128,-92 221,-92c63,-1 85,4 133,28c32,15 79,48 105,72c30,29 55,44 72,44c15,0 51,7 81,16c80,24 140,88 168,178c12,38 26,75 31,81c7,8 -5,12 -41,12c-68,2 -99,23 -99,68c0,30 20,64 38,65c4,1 27,5 51,9c25,5 55,5 67,1c27,-11 43,-56 33,-94c-6,-22 -5,-26 3,-18c7,7 12,28 12,48c0,28 -8,42 -35,68c-35,32 -36,33 -43,137c-15,213 -100,832 -131,951c-65,252 -189,379 -420,431c-181,41 -857,63 -1405,46zM2390,2190c184,-17 327,-47 310,-63c-3,-3 -35,1 -71,9c-116,24 -239,35 -459,40c-237,6 -280,10 -280,26c0,13 312,5 500,-12zM1566,2137c31,-18 79,-76 105,-127c12,-25 49,-77 81,-117c32,-39 58,-77 58,-83c0,-21 -24,-4 -55,38c-16,22 -32,41 -35,41c-3,1 -4,-29 -2,-66l2,-68l-26,62c-59,143 -223,253 -440,296l-109,22l55,6c107,11 344,9 366,-4zM1817,2033c36,-39 68,-115 89,-208c15,-68 41,-501 31,-511c-4,-4 -15,1 -26,10c-12,11 -36,17 -71,18c-48,0 -51,1 -46,21c27,99 26,102 -94,237c-279,314 -275,310 -251,310c9,0 114,-114 246,-267c39,-45 75,-84 82,-87c24,-10 47,92 47,209c0,95 -4,119 -28,180c-15,39 -41,88 -58,110c-17,22 -36,47 -42,55c-21,28 89,-42 121,-77zM2847,2071c64,-51 128,-119 120,-127c-3,-3 -31,19 -62,50c-32,31 -77,68 -101,82c-49,29 -53,34 -25,34c11,0 41,-17 68,-39zM2581,2089c105,-23 179,-93 179,-170c0,-48 -37,-121 -133,-268c-46,-69 -89,-136 -95,-148c-45,-84 48,-151 342,-248c75,-24 144,-49 155,-54c29,-16 55,-93 47,-141c-15,-95 -75,-182 -140,-204c-76,-26 -229,6 -380,79c-249,119 -453,304 -501,453c-16,48 -16,59 -2,135c27,148 114,330 222,461c83,102 174,133 306,105zM1207,2044c150,-31 284,-99 339,-172c16,-20 34,-43 41,-50c7,-7 13,-21 13,-30c-1,-14 -5,-12 -21,8c-86,103 -133,141 -219,174c-162,63 -393,90 -504,59c-32,-9 -7,16 27,27c42,13 227,4 324,-16zM755,1970c-4,-11 1,-34 9,-52c9,-17 14,-34 11,-36c-8,-8 -20,8 -35,46c-10,25 -10,35 0,47c17,21 23,19 15,-5zM674,1850c9,-22 16,-58 16,-80c0,-21 5,-62 11,-90c11,-50 10,-51 -25,-90c-33,-36 -50,-80 -26,-65c6,3 10,12 10,19c0,7 11,23 24,35c18,17 33,22 62,19c37,-3 39,-5 36,-33c-1,-16 -4,-46 -5,-66c-1,-20 -8,-44 -16,-52c-12,-15 -15,-15 -28,-1c-19,19 -30,10 -13,-11c8,-9 21,-13 36,-9c22,6 24,3 24,-30c0,-20 3,-36 8,-36c4,0 7,35 7,78c1,133 12,184 56,254c22,35 46,78 55,96c11,26 19,32 32,27c49,-21 142,-36 191,-32c91,10 44,-13 -65,-31c-94,-15 -97,-16 -67,-28c49,-21 201,-37 272,-30c36,4 90,18 120,31c29,14 58,25 63,25c5,0 18,-21 29,-47c11,-27 38,-71 59,-98c21,-28 43,-63 49,-79c11,-27 12,-28 36,-12c13,9 44,16 69,16c38,0 48,-5 71,-32c23,-27 26,-39 23,-79c-9,-94 -71,-141 -157,-119c-41,10 -47,9 -56,-6c-74,-127 -174,-174 -371,-174c-114,0 -139,7 -197,52c-22,18 -67,41 -101,53c-53,18 -64,25 -82,62c-12,23 -24,40 -27,36c-4,-3 0,-18 8,-34c8,-15 15,-32 15,-38c0,-12 -52,2 -82,23c-23,17 -57,20 -95,10c-41,-11 -24,-21 30,-17c59,4 87,-7 70,-29c-17,-20 -18,-80 -2,-105c10,-17 23,-23 47,-23c27,0 47,-12 103,-61c38,-34 69,-68 69,-75c0,-20 -10,-17 -60,16c-59,39 -72,38 -32,-3c35,-36 39,-47 18,-47c-8,0 -38,27 -67,60c-29,33 -64,63 -78,67c-37,8 -45,14 -31,23c7,4 10,16 6,25c-5,13 -13,15 -38,9c-69,-16 -101,-1 -115,54c-3,14 1,30 12,42c10,11 15,23 12,27c-4,4 -14,-2 -22,-13c-14,-18 -15,-18 -37,7c-54,62 -104,39 -167,-76c-19,-36 -12,5 29,157c50,182 80,269 133,373c41,83 114,195 127,195c4,0 15,-18 24,-40zM3016,1838c9,-29 19,-59 22,-65c2,-7 -2,-13 -9,-13c-9,0 -20,25 -30,65c-19,78 -8,87 17,13zM518,1235c32,-40 44,-105 41,-209c-4,-93 -5,-97 -36,-128c-26,-26 -41,-33 -73,-33c-50,0 -79,27 -94,90c-41,159 86,377 162,280zM1509,1125c43,-37 55,-82 41,-151c-7,-31 -18,-58 -26,-61c-8,-3 -37,6 -63,21c-27,14 -56,26 -65,26c-20,0 -20,-9 5,91c27,108 49,123 108,74zM1313,1075c-20,-25 -36,-35 -55,-35c-34,0 -35,10 -5,37c24,23 43,31 70,32c15,1 14,-4 -10,-34zM949,1044c12,-15 19,-29 16,-32c-5,-5 -88,66 -94,81c-7,17 58,-23 78,-49zM1129,1090c21,-11 51,-79 51,-115c0,-34 -34,-65 -70,-65c-25,0 -36,8 -61,48c-37,59 -37,110 1,129c30,15 55,16 79,3zM1238,1088c-5,-14 -78,-21 -78,-8c0,11 19,18 53,19c19,1 27,-3 25,-11zM1334,965c66,-24 124,-50 130,-56c8,-9 6,-10 -7,-5c-10,3 -80,6 -154,6h-135l17,26c10,16 14,35 11,50c-9,32 -2,31 138,-21zM345,926c10,-25 14,-49 11,-54c-10,-16 -76,-24 -92,-11c-8,6 -14,15 -14,19c0,12 60,90 69,90c5,0 17,-20 26,-44zM1909,791c17,-11 6,-48 -17,-56c-32,-10 -126,-13 -176,-5c-67,10 -83,40 -32,60c28,11 207,12 225,1zM2744,704c23,-9 20,-27 -3,-19c-11,3 -46,7 -78,8c-82,2 -161,-37 -205,-101c-35,-51 -52,-41 -19,12c25,40 84,83 143,102c41,13 125,12 162,-2zM863,691c9,-9 -5,-10 -58,-5c-114,10 -189,-27 -257,-126c-16,-23 -17,-24 -17,-4c-1,31 63,100 122,129c45,22 62,25 125,22c40,-2 78,-9 85,-16zM980,609c47,-59 31,-70 -18,-11c-23,27 -42,52 -42,56c0,14 30,-9 60,-45zM2835,652c23,-16 65,-75 65,-90c0,-17 -21,3 -71,71c-19,25 -16,36 6,19zM831,565c120,-62 72,-255 -63,-255c-65,0 -138,70 -138,133c0,47 46,114 90,130c29,11 81,7 111,-8zM2751,544c115,-111 -22,-297 -158,-214c-90,55 -92,168 -3,228c47,32 120,25 161,-14z"></path><path d="M2300,1151c0,-11 156,-105 265,-159c107,-53 205,-86 218,-73c6,6 -9,15 -44,25c-68,20 -250,108 -351,169c-80,49 -88,53 -88,38z"></path><path d="M2975,1020c-33,-53 -46,-65 -100,-90c-32,-15 -35,-19 -17,-19c42,-2 98,36 126,84c36,61 28,83 -9,25z"></path><path d="M956,1652c-3,-5 12,-12 36,-16c39,-6 58,-2 46,9c-11,11 -76,17 -82,7z"></path><path d="M1305,1620c-4,-6 13,-10 45,-10c32,0 49,4 45,10c-3,6 -24,10 -45,10c-21,0 -42,-4 -45,-10z"></path><path d="M704,1542c3,-5 19,-9 36,-10c17,0 28,4 25,9c-4,5 -20,9 -36,9c-17,0 -28,-4 -25,-8z"></path><path d="M1304,1525c-35,-54 34,-105 70,-53c20,29 20,34 -4,58c-27,27 -46,25 -66,-5z"></path><path d="M958,1533c-33,-8 -18,-21 28,-25c52,-4 67,7 29,22c-27,10 -29,11 -57,3z"></path><path d="M730,1492c0,-5 7,-13 16,-16c10,-4 14,-1 12,6c-5,15 -28,23 -28,10z"></path><path d="M636,1470c7,-27 57,-85 89,-102c11,-6 0,11 -25,39c-25,27 -51,58 -58,69c-11,18 -12,17 -6,-6z"></path><path d="M1683,1482c-35,-5 -49,-29 -34,-55c12,-18 11,-22 -5,-34c-18,-14 -18,-15 4,-33c19,-16 27,-17 48,-8c33,15 31,30 -3,17c-35,-13 -49,2 -23,26c26,23 25,31 -2,38c-33,9 -5,35 40,39c25,2 31,5 17,8c-11,3 -30,4 -42,2z"></path><path d="M1000,1401c-18,-35 -12,-87 14,-118c57,-68 234,-72 286,-6c24,31 27,95 4,117c-20,20 -22,20 -20,-1c1,-16 -10,-18 -106,-18c-95,0 -110,2 -137,23c-30,22 -31,22 -41,3zM1191,1290c29,-6 58,-15 64,-21c7,-8 3,-9 -14,-4c-14,4 -21,3 -18,-2c7,-10 -100,-9 -111,1c-3,3 -10,6 -16,6c-6,0 -4,-5 4,-10c21,-14 -3,-13 -35,2c-44,20 -33,28 56,36c9,1 40,-3 70,-8z"></path><path d="M1078,1413c7,-3 16,-2 19,1c4,3 -2,6 -13,5c-11,0 -14,-3 -6,-6z"></path><path d="M1133,1403c9,-2 25,-2 35,0c9,3 1,5 -18,5c-19,0 -27,-2 -17,-5z"></path><path d="M1223,1403c9,-2 23,-2 30,0c6,3 -1,5 -18,5c-16,0 -22,-2 -12,-5z"></path><path d="M1410,1001c0,-5 25,-21 56,-35c63,-29 64,-29 64,-18c0,7 -102,62 -115,62c-3,0 -5,-4 -5,-9z"></path><path d="M45,719c-4,-6 -5,-12 -2,-15c2,-3 7,2 10,11c7,17 1,20 -8,4z"></path><path d="M100,690c0,-6 34,-10 81,-10c51,0 78,4 74,10c-3,6 -40,10 -81,10c-43,0 -74,-4 -74,-10z"></path><path d="M24,654c-3,-19 -2,-54 4,-77c9,-40 10,-39 11,36c1,83 -4,98 -15,41z"></path><path d="M3168,663c-39,-10 -15,-23 42,-23c33,0 60,4 60,10c0,6 -1,10 -2,11c-18,4 -87,6 -100,2z"></path><path d="M80,635c0,-11 16,-14 73,-14c80,0 110,6 102,20c-4,5 -44,9 -91,9c-67,0 -84,-3 -84,-15z"></path><path d="M3172,612c-42,-6 -11,-22 43,-22c35,0 55,5 58,13c5,14 -42,18 -101,9z"></path><path d="M80,580c0,-6 37,-10 90,-10c53,0 90,4 90,10c0,6 -37,10 -90,10c-53,0 -90,-4 -90,-10z"></path><path d="M100,531c0,-6 5,-13 11,-16c15,-10 139,5 139,16c0,5 -34,9 -75,9c-41,0 -75,-4 -75,-9z"></path></g></g></g></svg>