<svg version="1.1" xmlns="http://www.w3.org/2000/svg" xmlns:xlink="http://www.w3.org/1999/xlink" width="270.000000pt" height="270.000000pt" viewBox="0,0,256,256"><g fill="#d97706" fill-rule="nonzero" stroke="none" stroke-width="1" stroke-linecap="butt" stroke-linejoin="miter" stroke-miterlimit="10" stroke-dasharray="" stroke-dashoffset="0" font-family="none" font-weight="none" font-size="none" text-anchor="none" style="mix-blend-mode: normal"><g transform="translate(-0.00025,-0.00025)"><g><g transform="translate(-0.14779,-0.53949) scale(0.94815,0.94815)"><g transform="translate(0,270) scale(0.1,-0.1)"><path d="M1818,2510c-82,-14 -161,-41 -229,-77c-63,-34 -111,-40 -93,-12c4,7 3,9 -3,6c-6,-4 -21,5 -33,18l-23,25h-626c-387,0 -632,-4 -641,-10c-10,-6 207,-10 623,-10h637l37,-34l37,-33l-44,-51l-44,-51l-29,34l-28,35h-568h-568l-24,-26l-24,-26l-3,-1044l-2,-1044h-48h-47l2,386c2,213 1,385 -1,383c-4,-4 -16,-777 -13,-781c1,-1 195,-5 432,-8c237,-4 443,-10 459,-15c19,-5 27,-4 23,2c-8,13 61,23 149,23c50,0 64,-3 64,-15c0,-8 5,-15 10,-15c6,0 10,7 10,15c0,8 5,15 10,15c6,0 10,-8 10,-17c0,-15 2,-14 15,4c12,18 20,20 57,13c84,-15 208,-21 208,-10c0,5 13,10 29,10c20,0 35,8 45,22c13,18 16,19 16,5c0,-9 5,-17 11,-17c6,0 17,-6 24,-14c10,-10 45,-14 128,-14c62,0 118,3 123,6c5,4 9,70 9,148c0,120 3,147 20,182c11,23 22,42 25,42c5,0 29,-38 57,-90c8,-14 27,-41 42,-60c43,-55 51,-75 51,-133c0,-33 5,-59 13,-66c15,-11 57,-7 66,7c3,5 33,24 66,42c106,58 112,71 72,143c-13,23 -29,58 -36,77c-15,42 -41,177 -40,205v20l9,-20l9,-20l1,20l1,20l9,-20c5,-11 9,-39 9,-62c1,-71 9,-78 44,-42l30,32l-6,-34c-5,-21 -4,-29 2,-20c7,11 10,9 15,-7c4,-11 13,-23 21,-26c16,-6 21,9 6,19c-5,3 -17,28 -27,57l-17,51l-22,-38l-23,-37l-4,55c-1,30 0,53 5,50c18,-11 4,61 -27,133c-19,43 -38,91 -41,106c-6,25 -4,28 17,28c13,0 55,9 93,19c38,11 72,17 75,14c3,-2 7,-47 8,-98l4,-94l64,-56c38,-34 64,-65 64,-76c0,-19 -3,-18 -35,7c-23,17 -35,22 -35,13c0,-21 16,-42 33,-45c8,-1 24,-5 36,-9c18,-6 21,-2 21,25c0,32 -11,45 -92,117c-39,34 -37,23 -52,258c-1,22 -11,61 -23,86c-20,44 -86,119 -105,119c-6,0 9,21 31,46c22,26 46,62 53,80l12,34h77c68,0 81,3 108,25c16,14 36,45 45,68c27,73 24,112 -9,161l-25,36l22,53c18,44 22,72 22,187c0,123 -2,142 -27,210c-15,41 -42,99 -60,128c-75,125 -232,223 -400,248c-99,15 -253,17 -329,4zM2095,2485c224,-57 368,-217 409,-454c6,-32 4,-31 -32,25c-83,126 -191,202 -352,246c-149,40 -473,29 -649,-22c-19,-5 -36,-8 -38,-6c-2,2 22,30 54,62c79,81 203,138 338,157c74,10 215,6 270,-8zM2016,2221c122,-25 225,-75 298,-143c38,-35 55,-57 48,-62c-7,-4 -25,7 -44,27c-157,160 -431,210 -778,141c-104,-21 -158,-48 -178,-91c-16,-33 -15,-36 7,-79c13,-24 21,-47 18,-51c-12,-11 -35,18 -50,61c-29,85 24,145 159,180c151,39 377,46 520,17zM1785,1927c28,2 66,5 85,7c35,5 35,5 -10,-16c-25,-11 -82,-28 -127,-37c-46,-9 -83,-19 -83,-23c0,-14 98,-23 235,-22c157,0 223,17 294,73c47,38 51,38 51,6c0,-43 25,-88 89,-160c33,-38 61,-74 61,-80c1,-31 17,-36 51,-16c52,32 118,29 152,-7c15,-16 31,-42 36,-60c11,-36 -2,-102 -26,-139c-30,-45 -116,-67 -176,-44c-22,9 -26,5 -52,-51c-55,-115 -173,-180 -361,-198c-232,-21 -406,30 -483,144c-55,81 -64,121 -59,278c4,155 -1,138 83,292l37,68l77,-8c42,-5 99,-8 126,-7zM1434,1684c10,-4 16,-18 16,-38v-33l-57,5c-32,2 -54,1 -50,-4c4,-4 23,-7 42,-6c30,2 37,-1 45,-23c6,-15 10,-38 10,-52c0,-24 -3,-25 -45,-21c-45,3 -59,-4 -29,-16c9,-3 31,-6 50,-6c31,0 34,-3 34,-30c0,-27 -3,-30 -32,-30c-77,0 -134,68 -126,152c8,82 73,128 142,102zM1051,1490c32,-22 61,-40 64,-40c3,0 5,16 5,35c0,25 5,35 15,35c18,0 85,-41 85,-52c0,-14 -16,-9 -43,12c-34,27 -37,26 -37,-20c0,-22 -3,-40 -8,-40c-4,0 -31,16 -60,36c-30,20 -56,34 -58,31c-2,-2 7,-30 21,-62c14,-31 23,-60 20,-63c-3,-3 -23,-1 -45,5c-22,5 -40,8 -40,6c0,-2 7,-18 16,-34c8,-17 13,-36 11,-42c-5,-14 -47,65 -47,88c0,18 23,20 52,4c11,-6 22,-9 24,-6c3,3 -6,33 -20,68c-39,95 -38,96 45,39zM362,1503c16,-15 18,-36 18,-236c0,-191 -2,-223 -17,-239c-20,-22 -51,-23 -75,-1c-16,15 -18,36 -18,236c0,191 2,223 17,239c20,22 51,23 75,1zM1476,1351c18,-41 27,-79 28,-120c1,-61 1,-61 -34,-75c-55,-22 -60,-11 -60,130c0,116 1,124 19,124c15,0 27,-16 47,-59zM1280,1328c11,-24 20,-57 20,-74c0,-25 10,-37 64,-77c87,-64 130,-115 151,-177c21,-62 14,-70 -49,-63c-77,9 -182,80 -262,179l-37,45l30,32c16,18 40,47 53,66c23,33 23,35 7,63c-15,26 -15,48 -1,48c3,0 14,-19 24,-42zM1238,1317c29,-31 16,-44 -15,-15c-31,29 -43,14 -13,-17c30,-32 17,-45 -15,-15c-14,13 -27,21 -30,18c-3,-2 6,-15 19,-27c14,-13 22,-30 19,-38c-4,-11 -10,-10 -29,8c-13,12 -27,19 -31,15c-4,-4 3,-16 17,-26c20,-15 22,-22 13,-31c-10,-10 -17,-9 -33,6c-37,34 -35,54 11,101c24,24 48,44 54,44c6,0 21,-10 33,-23zM1589,1208c1,-3 -13,-11 -30,-17c-43,-15 -51,-13 -15,4l30,13l-27,24c-15,14 -27,29 -27,33c0,8 68,-47 69,-57zM976,1191c-25,-28 -19,-41 19,-41c41,0 43,-10 11,-53c-13,-18 -29,-42 -35,-54l-12,-23l51,20c75,29 81,28 74,-20c-7,-43 -2,-47 36,-25c29,17 40,18 40,6c0,-10 -96,-52 -103,-44c-3,2 -1,20 5,40c5,19 7,37 5,39c-2,3 -28,-4 -56,-16c-91,-36 -97,-29 -46,46c25,36 45,66 45,68c0,1 -15,0 -34,-2c-47,-5 -53,12 -20,60c16,22 30,35 32,29c2,-7 -3,-20 -12,-30zM2326,1188c39,-34 84,-117 84,-155c0,-19 -9,-25 -52,-37c-81,-23 -132,-36 -139,-36c-10,0 -27,76 -35,152l-7,66l44,20c59,27 63,27 105,-10zM1673,1174c26,-9 47,-21 46,-27c0,-7 -6,-43 -12,-81l-12,-69l-70,-23c-39,-13 -71,-24 -72,-24c-1,0 -9,22 -17,48c-9,27 -30,68 -47,91c-17,23 -30,43 -28,45c11,8 136,55 150,56c8,0 36,-7 62,-16zM2084,1138c-20,-33 -60,-78 -70,-78c-6,0 -19,9 -29,20c-18,20 -18,21 5,38c46,32 109,46 94,20zM1887,1116c28,-24 28,-25 8,-40c-11,-8 -23,-16 -27,-16c-8,0 -58,63 -58,73c0,17 52,5 77,-17zM1990,1135c0,-2 -11,-12 -24,-20c-19,-13 -29,-14 -45,-5c-34,18 -24,30 24,30c25,0 45,-2 45,-5zM1679,678c-7,-54 -15,-98 -18,-98c-3,0 -6,-31 -6,-70c0,-38 3,-70 8,-70c4,0 7,-27 7,-60c0,-52 -4,-65 -25,-86c-14,-14 -22,-30 -18,-37c4,-7 0,-6 -10,2c-9,7 -18,10 -19,5c-1,-5 -5,99 -8,231l-5,240l-32,3l-33,3v87c0,84 1,87 26,99c15,7 31,10 35,7c5,-3 9,-1 9,5c0,5 18,12 40,16c22,4 43,12 47,18c14,21 15,-195 2,-295zM1500,829v-89h-45h-45v93v92l45,-3l45,-4zM2233,840c3,-11 1,-20 -4,-20c-5,0 -9,9 -9,20c0,11 2,20 4,20c2,0 6,-9 9,-20zM2264,765c3,-8 1,-15 -4,-15c-6,0 -10,7 -10,15c0,8 2,15 4,15c2,0 6,-7 10,-15zM2227,728c-3,-7 -5,-2 -5,12c0,14 2,19 5,13c2,-7 2,-19 0,-25zM1250,468v-258h-265h-265v260v260l265,-3l265,-2zM1470,660v-70h-45h-45v63c0,35 3,67 7,70c3,4 24,7 45,7h38zM1550,716c0,-11 -19,-15 -25,-6c-3,5 1,10 9,10c9,0 16,-2 16,-4zM2210,685c0,-17 18,-106 46,-236c6,-25 1,-29 -71,-65l-77,-38l-23,27c-12,16 -48,71 -80,123l-59,95l-18,-23c-34,-42 -49,-92 -55,-176l-6,-83l-76,7c-69,6 -101,19 -101,44c0,3 30,3 68,-1c70,-8 102,-4 102,12c0,5 -38,9 -84,9c-78,0 -84,1 -90,23c-9,36 -7,175 5,241l10,61h255c247,0 254,-1 254,-20zM1357,618c-2,-18 -4,-6 -4,27c0,33 2,48 4,33c2,-15 2,-42 0,-60z"></path><path d="M1686,1729c-47,-17 -81,-39 -60,-39c19,1 109,36 112,43c7,16 -3,15 -52,-4z"></path><path d="M2056,1731c12,-12 124,-40 124,-31c0,5 -18,15 -40,24c-44,17 -100,22 -84,7z"></path><path d="M1634,1619c-3,-6 -2,-14 5,-18c17,-11 104,3 109,17c5,16 -104,17 -114,1z"></path><path d="M2050,1620c0,-6 6,-12 13,-14c63,-20 143,-10 107,14c-20,13 -120,13 -120,0z"></path><path d="M2479,1616c-36,-17 -37,-53 -2,-67l28,-11l-27,-10c-37,-13 -42,-35 -14,-54c22,-14 28,-14 62,1c47,19 41,28 -9,13c-27,-8 -41,-8 -48,-1c-15,15 -3,33 22,33c27,0 24,28 -6,42c-14,6 -25,15 -25,20c0,14 50,28 76,22c33,-9 30,2 -5,14c-20,7 -35,7 -52,-2z"></path><path d="M1950,1491c0,-6 5,-13 10,-16c6,-3 10,1 10,9c0,9 -4,16 -10,16c-5,0 -10,-4 -10,-9z"></path><path d="M1821,1459c-2,-71 34,-139 74,-139c12,0 29,8 38,18c14,16 42,100 35,107c-2,2 -22,0 -45,-6c-63,-14 -87,-7 -94,27c-6,28 -7,28 -8,-7zM1928,1368c-2,-17 -11,-24 -30,-26c-24,-3 -28,0 -28,22c0,22 4,26 31,26c26,0 30,-3 27,-22z"></path><path d="M1401,1571c-18,-12 -7,-41 16,-41c12,0 14,3 6,11c-6,6 -9,18 -6,25c6,16 3,17 -16,5z"></path><path d="M2303,1037c-66,-18 -96,-37 -59,-37c24,0 145,40 151,50c8,13 -7,11 -92,-13z"></path><path d="M1549,1056c34,-71 51,-92 51,-63c0,25 -60,137 -73,137c-9,0 -3,-22 22,-74z"></path><path d="M974,416c-3,-7 -4,-42 -2,-77l3,-64h105h105l3,78l3,77h-106c-80,0 -107,-3 -111,-14zM1170,350v-60h-90h-90v60v60h90h90z"></path><path d="M2153,433c-64,-36 -85,-61 -35,-42c43,16 112,59 112,69c0,15 -10,12 -77,-27z"></path><path d="M78,2406c-12,-8 -18,-26 -17,-47l1,-34l8,32c4,18 13,40 20,48c15,18 11,19 -12,1z"></path><path d="M63,2150c0,-25 2,-35 4,-22c2,12 2,32 0,45c-2,12 -4,2 -4,-23z"></path><path d="M2444,608c8,-24 17,-52 21,-62c13,-32 -11,-10 -46,40c-17,25 -32,44 -34,42c-2,-2 1,-26 7,-53c6,-28 13,-44 15,-38c3,9 11,8 29,-3c23,-16 25,-15 69,29c41,40 44,45 25,50c-15,4 -20,0 -20,-14c0,-16 -6,-13 -31,16c-41,46 -51,44 -35,-7zM2476,593c15,-20 18,-33 7,-33c-5,0 -13,11 -20,25c-13,29 -6,33 13,8z"></path></g></g></g></g></g></svg>